<?xml version="1.0" standalone="no"?>
<!DOCTYPE svg PUBLIC "-//W3C//DTD SVG 20010904//EN"
 "http://www.w3.org/TR/2001/REC-SVG-20010904/DTD/svg10.dtd">
<svg version="1.0" xmlns="http://www.w3.org/2000/svg"
 width="1371.000000pt" height="1371.000000pt" viewBox="0 0 1371.000000 1371.000000"
 preserveAspectRatio="xMidYMid meet">
<metadata>
Created by potrace 1.14, written by Peter Selinger 2001-2017
</metadata>
<g transform="translate(0.000000,1371.000000) scale(0.100000,-0.100000)"
fill="#000000" stroke="none">
<path d="M6767 13364 c-1 -1 -81 -4 -177 -8 -96 -4 -191 -8 -210 -11 -19 -2
-75 -6 -125 -10 -49 -3 -97 -8 -105 -10 -8 -2 -44 -7 -80 -10 -36 -3 -92 -10
-125 -16 -33 -5 -80 -12 -105 -15 -35 -4 -362 -67 -465 -89 -236 -51 -814
-237 -980 -315 -11 -5 -42 -18 -70 -29 -130 -50 -433 -198 -634 -311 -300
-167 -592 -362 -866 -579 -66 -52 -122 -97 -125 -101 -3 -3 -17 -15 -32 -26
-150 -115 -509 -467 -690 -675 -26 -30 -59 -67 -73 -84 -177 -203 -382 -485
-590 -810 -107 -167 -289 -511 -391 -737 -90 -200 -268 -671 -288 -763 -1 -5
-10 -37 -20 -70 -16 -55 -44 -155 -67 -245 -51 -200 -111 -510 -134 -695 -4
-27 -8 -61 -10 -75 -13 -97 -17 -133 -30 -280 -24 -275 -24 -930 0 -1080 2
-14 7 -63 11 -110 3 -47 8 -93 10 -103 2 -10 6 -46 9 -80 3 -34 8 -69 10 -77
3 -8 7 -35 10 -60 21 -166 91 -503 156 -745 140 -521 381 -1099 645 -1543 27
-46 60 -103 73 -125 42 -73 226 -348 302 -452 77 -105 248 -322 307 -390 126
-144 196 -218 342 -365 219 -220 384 -367 640 -569 38 -30 319 -234 336 -244
7 -4 11 719 12 2411 2 1537 6 2430 13 2452 11 40 33 69 71 94 26 17 99 18
1243 18 l1216 -1 34 -21 c19 -12 42 -39 54 -63 20 -42 20 -62 23 -2980 1
-1616 5 -2940 8 -2942 3 -2 44 -8 90 -15 47 -6 99 -12 115 -15 17 -2 62 -6
100 -10 39 -3 88 -8 110 -10 230 -25 860 -25 1085 0 19 2 67 6 105 9 39 3 88
8 110 11 85 11 192 26 211 29 10 2 41 7 67 10 27 4 59 9 70 12 12 2 36 7 52 9
133 24 303 59 383 81 31 8 64 17 72 19 51 11 154 39 210 56 36 11 72 22 80 24
20 4 261 83 280 92 8 3 18 7 23 8 4 2 9 4 12 5 3 1 8 3 13 4 29 6 346 136 478
196 253 115 672 346 827 456 26 19 49 34 52 34 15 0 409 289 520 381 335 279
608 547 865 850 74 87 205 254 292 374 149 205 336 497 440 690 73 134 232
465 283 585 31 74 60 144 65 155 59 132 224 642 246 764 3 14 7 28 9 31 8 12
78 332 91 415 3 17 11 66 19 110 8 44 17 103 21 130 3 28 8 58 9 67 2 9 7 48
10 85 4 37 9 76 10 85 2 9 7 57 10 105 4 48 8 98 10 111 21 132 22 735 0 982
-9 113 -16 187 -20 215 -2 17 -7 55 -10 85 -3 30 -8 66 -10 80 -2 14 -7 45
-10 70 -7 55 -14 97 -20 130 -3 14 -7 41 -10 60 -9 57 -33 180 -50 255 -9 39
-18 81 -21 95 -3 14 -12 52 -21 85 -8 33 -16 67 -18 76 -14 72 -157 527 -190
604 -7 17 -25 64 -40 105 -29 76 -91 226 -140 335 -38 87 -197 401 -234 463
-17 29 -31 55 -31 57 0 2 -30 53 -66 112 -37 59 -75 123 -85 141 -19 32 -155
237 -171 257 -4 5 -40 55 -80 110 -185 259 -395 503 -658 765 -187 187 -294
288 -390 366 -19 16 -37 31 -40 34 -3 3 -59 49 -125 101 -294 234 -590 431
-947 628 -180 99 -506 251 -700 327 -199 77 -226 87 -328 121 -140 46 -405
124 -470 138 -8 2 -42 10 -75 18 -56 15 -315 68 -395 81 -19 3 -44 8 -55 10
-11 2 -42 7 -68 10 -27 4 -59 9 -70 12 -12 2 -42 6 -67 9 -25 3 -61 7 -80 10
-19 3 -55 7 -80 9 -25 3 -72 7 -105 10 -134 13 -186 16 -315 22 -122 6 -379
11 -383 8z m368 -218 c233 -12 364 -23 538 -47 37 -5 86 -11 110 -14 23 -3 53
-7 67 -10 14 -3 36 -7 50 -9 14 -3 41 -8 60 -10 19 -3 46 -8 60 -11 14 -3 72
-14 130 -26 574 -115 1197 -346 1735 -641 793 -437 1468 -1025 2021 -1762 46
-61 87 -115 92 -121 39 -50 312 -477 312 -488 0 -2 22 -42 48 -88 69 -120 190
-363 256 -514 32 -71 62 -139 66 -150 56 -125 202 -545 235 -675 2 -8 18 -69
35 -135 18 -66 34 -131 37 -145 2 -14 10 -50 18 -80 15 -57 49 -240 66 -345 5
-33 11 -71 13 -85 7 -38 25 -178 31 -245 3 -33 8 -76 10 -95 30 -237 34 -780
9 -1080 -10 -132 -23 -254 -29 -300 -2 -14 -7 -45 -10 -70 -3 -25 -8 -56 -10
-70 -2 -14 -6 -43 -10 -65 -5 -39 -9 -62 -20 -115 -2 -14 -7 -38 -9 -54 -3
-16 -10 -52 -16 -80 -6 -28 -12 -60 -14 -71 -5 -23 -46 -202 -51 -225 -2 -8
-20 -73 -40 -145 -20 -71 -39 -139 -42 -150 -2 -11 -7 -27 -10 -35 -3 -8 -7
-19 -9 -25 -8 -34 -100 -291 -142 -400 -73 -188 -101 -251 -223 -500 -77 -157
-91 -183 -177 -335 -214 -376 -516 -790 -822 -1124 -90 -98 -341 -348 -431
-427 -280 -251 -621 -506 -914 -683 -60 -37 -117 -71 -125 -76 -215 -134 -634
-333 -960 -457 -231 -88 -647 -213 -792 -238 -17 -3 -34 -8 -38 -10 -4 -2 -22
-7 -41 -10 -19 -3 -77 -14 -129 -25 -104 -21 -243 -44 -360 -59 -112 -15 -139
-19 -315 -37 -182 -18 -722 -24 -920 -9 -60 4 -128 9 -150 10 -96 6 -191 18
-205 25 -13 7 -15 89 -15 652 l0 643 25 -1 c31 -1 131 -13 179 -20 106 -18
323 -29 551 -29 238 0 377 8 555 30 22 3 63 7 90 10 44 5 119 17 181 29 31 6
96 18 119 21 117 17 628 165 730 211 17 7 66 27 110 44 90 35 84 32 295 134
251 122 320 161 560 319 121 80 175 118 178 128 2 5 8 9 13 9 12 0 215 160
332 262 211 183 506 503 687 743 74 98 227 322 254 370 9 17 24 42 34 57 139
215 355 678 456 980 33 97 83 261 91 298 2 8 14 58 28 110 25 97 71 313 81
385 4 22 8 51 11 65 2 14 7 45 10 70 3 25 7 54 9 65 2 11 7 49 10 85 4 36 9
81 11 100 24 193 24 833 0 958 -1 9 -6 47 -9 84 -4 37 -9 77 -11 90 -2 13 -6
46 -10 73 -11 94 -49 300 -80 435 -134 589 -398 1194 -743 1700 -79 116 -198
278 -212 290 -3 3 -13 14 -21 26 -63 93 -329 378 -510 550 -45 42 -274 236
-329 277 -134 103 -448 317 -464 317 -3 0 -32 17 -63 37 -155 99 -599 304
-818 377 -44 15 -89 31 -100 35 -23 9 -86 30 -112 37 -210 54 -409 103 -439
107 -22 3 -59 10 -84 16 -66 14 -322 49 -420 56 -47 4 -108 8 -135 10 -70 5
-488 6 -560 1 -111 -8 -227 -17 -245 -21 -11 -2 -45 -6 -77 -10 -32 -3 -69 -7
-83 -10 -14 -2 -45 -7 -70 -10 -69 -9 -331 -63 -439 -91 -394 -101 -879 -299
-1181 -483 -19 -11 -42 -24 -50 -28 -27 -13 -234 -144 -309 -197 -82 -57 -340
-257 -398 -308 -100 -89 -158 -143 -268 -253 -107 -107 -155 -158 -246 -261
-124 -140 -304 -383 -420 -564 -95 -149 -109 -172 -192 -320 -165 -295 -385
-847 -442 -1110 -2 -8 -11 -42 -20 -75 -19 -74 -64 -278 -71 -325 -3 -19 -9
-57 -14 -85 -18 -101 -23 -136 -35 -250 -3 -38 -8 -80 -10 -92 -13 -83 -20
-258 -20 -513 1 -258 4 -351 20 -500 2 -19 6 -64 10 -100 6 -54 50 -328 70
-435 13 -67 78 -326 101 -405 53 -177 185 -541 211 -583 4 -7 8 -16 9 -22 2
-16 158 -330 211 -425 69 -126 191 -320 279 -445 42 -60 87 -125 99 -142 l23
-33 0 -945 c0 -520 -3 -945 -5 -945 -6 0 -114 86 -213 168 -260 220 -456 412
-696 683 -106 120 -313 382 -390 494 -155 226 -257 387 -346 545 -14 25 -36
63 -49 85 -28 50 -199 392 -199 399 0 3 -13 33 -29 68 -68 149 -132 311 -196
498 -45 131 -102 316 -110 354 -3 10 -9 33 -15 51 -6 18 -12 41 -15 51 -2 10
-15 66 -29 124 -25 106 -62 279 -72 335 -2 17 -9 57 -15 90 -6 33 -13 76 -15
95 -2 19 -9 69 -15 110 -6 41 -13 91 -14 110 -2 19 -6 62 -10 95 -13 123 -14
143 -22 275 -13 241 -6 744 12 885 2 17 7 62 10 100 5 60 13 132 30 260 2 17
7 48 11 70 3 22 7 49 9 60 70 461 258 1094 448 1515 74 165 251 514 299 590 8
14 39 66 68 115 29 50 87 142 129 205 42 63 78 119 80 124 2 5 9 16 17 25 7 9
74 97 148 196 137 183 154 203 286 354 144 166 354 381 499 511 46 41 89 80
95 85 51 48 244 204 346 281 69 52 130 97 135 101 6 5 46 33 90 63 44 29 100
68 125 85 69 47 296 185 305 185 5 0 16 6 24 14 45 39 466 248 666 331 77 32
154 63 170 70 17 7 64 25 105 39 41 15 84 30 95 35 37 17 368 120 435 136 8 2
62 15 120 30 58 15 112 28 120 30 240 49 339 67 450 84 229 34 226 34 370 46
41 3 89 8 105 10 17 2 109 6 205 10 96 4 176 8 177 9 4 3 249 -2 378 -8z m-29
-1500 c191 -11 306 -23 444 -46 30 -5 71 -11 90 -14 240 -35 720 -174 927
-267 24 -10 45 -19 47 -19 8 0 137 -60 266 -123 133 -65 306 -162 430 -241
112 -72 370 -258 370 -268 0 -4 5 -8 10 -8 6 0 23 -11 38 -24 15 -13 74 -64
132 -113 158 -136 452 -434 508 -515 9 -12 21 -27 27 -33 46 -40 293 -380 379
-520 71 -115 156 -265 156 -275 0 -5 3 -10 8 -12 6 -2 124 -232 127 -248 1 -3
14 -32 29 -65 32 -70 127 -308 151 -380 23 -68 75 -233 86 -272 22 -81 28
-105 54 -213 33 -145 30 -130 49 -230 24 -133 25 -140 36 -227 6 -45 13 -99
15 -120 33 -256 39 -798 10 -1018 -2 -16 -6 -57 -10 -90 -3 -33 -7 -71 -9 -85
-3 -14 -7 -43 -10 -65 -20 -153 -70 -397 -117 -570 -195 -722 -545 -1380
-1034 -1941 -82 -95 -365 -377 -450 -449 -38 -33 -72 -62 -75 -65 -9 -10 -223
-175 -270 -208 -314 -223 -664 -414 -1000 -545 -199 -77 -391 -139 -570 -183
-214 -52 -552 -105 -765 -121 -197 -14 -591 -8 -790 12 -49 5 -147 17 -164 20
-9 2 -40 6 -68 10 l-53 7 -1 2082 c0 1144 -3 2095 -5 2111 -20 135 -103 247
-223 304 l-56 26 -1260 0 -1260 0 -57 -27 c-112 -52 -197 -166 -215 -288 -5
-30 -8 -535 -8 -1122 0 -1016 -1 -1066 -17 -1051 -10 9 -18 20 -18 26 0 5 -10
23 -22 40 -78 109 -259 443 -347 639 -190 426 -339 971 -386 1413 -4 33 -8 71
-11 85 -25 160 -26 743 0 980 2 19 7 64 10 100 8 73 42 292 56 360 5 25 12 56
14 70 29 166 154 589 227 765 250 606 481 985 897 1467 51 60 337 343 406 403
67 59 198 165 265 215 18 14 38 30 45 35 48 40 358 245 406 268 8 4 42 23 75
43 192 112 551 272 790 352 250 84 587 164 781 186 27 4 58 8 69 10 12 2 51 7
87 10 37 4 76 9 87 11 11 2 84 7 163 10 79 4 144 8 145 9 4 3 252 -2 359 -8z"/>
<path d="M5373 4175 c-212 -66 -308 -287 -216 -494 40 -90 156 -173 263 -189
325 -48 530 343 307 585 -88 96 -234 136 -354 98z m175 -221 c86 -56 78 -194
-15 -239 -88 -43 -192 16 -199 114 -4 64 41 128 101 144 29 8 86 -2 113 -19z"/>
</g>
</svg>
